<svg width="537" height="256" viewBox="0 0 537 256" fill="none" xmlns="http://www.w3.org/2000/svg">
<path d="M7.2 41.6C9 42.5 11.7 41 15.3 38C17.4 36.5 19.5 35.6 23.4 34.4C34.8 30.8 64.5 25.4 65.1 26.9C65.4 26.9 64.5 28.7 63.6 30.8C61.5 34.7 60.9 36.5 54.3 52.1C47.4 68.6 40.5 86.6 36.9 98C35.7 101.6 35.1 102.8 34.2 103.1C33 103.4 26.7 104.3 21.3 104.9C14.7 105.5 14.1 105.8 14.1 110.3C14.1 113.3 15.3 116.9 16.8 119L18.3 120.5H23.7C29.1 120.5 29.4 120.5 29.1 121.7C28.8 122 27.9 126.2 27 130.7C25.8 135.2 24.9 140.3 24.3 141.8C23.7 143.3 22.5 149.9 21.6 156.5C20.4 162.8 19.2 168.8 18.9 169.7C18 171.5 16.8 180.8 16.2 189.2C15.6 195.8 15.6 197 16.5 199.4C17.7 203.9 19.8 206 24.9 207.2C27.6 207.8 30.6 207.5 31.8 206.6C32.1 206.6 32.4 205.1 32.4 203.9C32.4 201.5 36.9 182.6 38.4 179.6C38.7 179 40.2 173.9 41.7 168.2C43.2 162.8 46.8 151.7 49.2 143.9C51.9 135.8 54.6 126.8 55.5 123.5C56.4 120.2 57.3 117.5 57.3 117.2C57.6 116.9 73.2 114.5 76.5 114.2C78.6 114.2 83.1 113.6 86.4 113.3C89.4 112.7 93 112.4 93.9 112.4C95.7 112.4 96 112.1 96.6 111.2C97.5 108.2 95.1 102.2 92.4 100.7C90.6 99.8 89.4 99.8 79.2 100.1C64.5 100.7 63 100.7 62.4 100.1C62.4 100.1 62.7 98.6 63.3 97.1C63.9 95.6 65.1 91.7 66 88.7C72.6 66.5 78 51.5 85.5 34.7C88.5 28.4 88.5 27.5 87.3 25.4L86.4 23.9L89.1 23.6C90.3 23.3 95.1 22.7 99.3 22.1C103.8 21.8 108.3 21.2 109.5 21.2C111 20.9 115.8 20.6 120.9 20.3C126 19.7 134.7 19.4 141.6 19.4C152.4 19.4 153.6 19.4 155.1 20.3C158.4 22.4 159.9 19.7 159 13.7C158.1 9.2 157.5 7.99999 155.4 6.19998C153.3 4.69998 151.8 4.09999 144.9 2.89999C138 1.99998 132 1.39999 120.9 0.799998C115.8 0.799998 110.4 0.499984 109.5 0.499984C108.3 0.199988 102.9 0.199988 97.8 0.799998C88.8 1.09999 85.5 1.39999 76.2 2.89999C74.1 3.19999 71.1 3.49998 69.6 3.49998C60 4.39999 12.3 16.1 6.6 19.1C6 19.4 4.2 20.6 3 21.8C0.3 24.5 0 26.9 1.5 32.3C2.7 36.8 5.1 40.7 7.2 41.6ZM180.649 95C178.849 87.8 171.349 76.4 165.049 71.9C163.549 70.7 161.449 68.9 160.249 67.7C155.149 62.9 149.149 61.7 143.749 64.7C135.049 69.5 126.049 80 116.749 96.5C106.249 114.8 100.849 128 97.2492 143C95.4492 150.8 94.8492 155.3 94.8492 161.6C94.8492 173 98.1492 183.8 103.549 189.5C106.249 192.8 113.149 197 118.849 198.8C122.149 200 123.649 200.3 127.249 200C131.749 200 132.349 200 136.849 197.3C139.849 195.8 142.549 194.6 142.849 194C143.449 193.7 144.949 192.5 146.149 191.6C148.549 190.1 151.249 187.7 155.449 182.6C166.249 170.3 176.749 148.4 180.949 129.2C183.049 119.9 182.749 104.3 180.649 95ZM164.749 123.2C162.049 139.4 157.549 151.7 150.649 162.8C142.849 174.5 131.449 186.2 124.249 188.6C119.749 190.4 119.149 190.4 117.649 184.4C116.149 179.6 116.749 173 119.749 159.2C124.249 137 132.049 116.9 142.549 99.8C148.549 89.6 157.849 77.3 159.349 77.3C160.549 77.3 162.949 82.7 164.449 88.1C166.849 96.8 166.849 109.1 164.749 123.2ZM273.52 95C271.72 87.8 264.22 76.4 257.92 71.9C256.42 70.7 254.32 68.9 253.12 67.7C248.02 62.9 242.02 61.7 236.62 64.7C227.92 69.5 218.92 80 209.62 96.5C199.12 114.8 193.72 128 190.12 143C188.32 150.8 187.72 155.3 187.72 161.6C187.72 173 191.02 183.8 196.42 189.5C199.12 192.8 206.02 197 211.72 198.8C215.02 200 216.52 200.3 220.12 200C224.62 200 225.22 200 229.72 197.3C232.72 195.8 235.42 194.6 235.72 194C236.32 193.7 237.82 192.5 239.02 191.6C241.42 190.1 244.12 187.7 248.32 182.6C259.12 170.3 269.62 148.4 273.82 129.2C275.92 119.9 275.62 104.3 273.52 95ZM257.62 123.2C254.92 139.4 250.42 151.7 243.52 162.8C235.72 174.5 224.32 186.2 217.12 188.6C212.62 190.4 212.02 190.4 210.52 184.4C209.02 179.6 209.62 173 212.62 159.2C217.12 137 224.92 116.9 235.42 99.8C241.42 89.6 250.72 77.3 252.22 77.3C253.42 77.3 255.82 82.7 257.32 88.1C259.72 96.8 259.72 109.1 257.62 123.2ZM393.691 13.4C391.591 13.7 390.391 14.9 387.391 20.3C384.391 25.1 375.091 47.6 371.191 58.1C369.691 63.2 366.091 70.1 364.591 72.5C364.291 72.8 363.691 72.5 361.891 70.7C360.091 68.6 354.991 65.6 349.891 63.8C346.291 62.6 339.691 62.3 337.591 63.2C336.691 63.5 335.791 63.8 335.491 63.8C333.391 64.4 328.291 67.4 325.291 69.5C321.091 73.1 310.591 84.2 310.591 85.1C310.591 85.4 309.391 87.5 307.591 90.2C296.491 107 288.391 126.8 282.091 150.8C279.091 162.8 278.191 169.4 279.091 175.7C279.691 180.5 280.891 184.4 281.791 186.5C282.091 187.1 282.391 187.7 282.391 188C282.391 188.6 283.291 189.8 284.491 191.3C289.291 197 301.291 199.7 306.991 197C312.691 194 318.091 187.1 324.991 173.9C329.791 165.2 331.891 161 334.591 156.2C335.191 154.7 337.591 150.5 339.391 146.9C344.491 137 347.791 131.3 347.791 131.3C347.791 131.6 347.491 134.3 346.891 137.3C345.391 146.6 344.791 155 344.791 168.2C344.791 187.7 345.691 192.5 348.991 196.1C350.791 197.9 354.091 200 357.091 200.6C359.491 201.2 360.091 201.2 361.891 200.6C363.691 200 364.291 198.2 363.091 197C361.291 195.2 363.391 175.4 366.691 164.6C369.391 154.1 370.291 150.8 374.491 130.1C379.291 106.1 380.791 98.3 383.491 88.1C386.191 77.9 392.491 58.1 396.691 47.6C403.891 29 406.291 22.7 406.291 21.5C406.291 18.5 397.591 12.8 393.691 13.4ZM355.291 84.8V89.3L348.391 101.6C344.791 108.2 341.791 113.9 341.791 114.2C341.791 114.2 338.491 120.2 334.291 127.1C330.391 134.3 326.491 141.5 325.591 143.3C324.391 145.1 321.391 150.5 318.391 155C312.091 164 305.491 172.7 305.491 171.5C305.491 170.6 308.191 158.3 310.291 150.8C312.391 141.5 315.091 134.3 321.091 119.6C323.191 114.5 329.791 101.6 332.491 96.8C333.691 95 334.891 93.2 334.891 93.2C334.891 92.9 335.491 92 336.091 91.1C336.691 90.2 337.591 89.3 337.591 89C337.591 88.1 342.091 82.1 344.791 79.4C347.791 76.7 351.391 74.6 353.191 74.6C354.391 74.6 355.291 79.1 355.291 84.8ZM456.518 21.2C456.218 20.6 455.918 19.4 455.618 18.8C454.718 15.2 446.918 10.1 442.718 10.4C440.918 10.4 440.318 11 438.818 14.6C436.718 20 428.318 41 425.618 46.7C425.018 48.5 424.118 50.3 423.818 50.9C423.518 51.5 423.218 52.7 422.618 53.6C422.318 54.5 421.418 56.3 420.818 57.8C420.218 59.3 419.318 61.7 418.718 63.5C416.018 69.5 410.318 84.2 402.818 104.9C392.018 134.3 385.418 162.8 385.718 176.6C386.018 182.3 387.518 188.6 389.318 191C393.518 196.4 397.718 199.1 404.618 200.9C411.818 202.7 414.518 202.4 417.818 199.1C420.518 196.7 420.218 195.2 416.918 193.7C415.418 193.1 413.618 192.5 412.418 192.2C409.718 191.9 409.718 191.9 411.218 184.4C411.818 181.1 412.418 176.9 412.718 175.1C413.018 168.5 422.018 127.7 426.218 113.3C426.818 111.8 428.618 105.8 430.418 100.1C431.918 94.4 434.018 87.5 435.218 84.8C435.818 82.1 438.218 75.8 440.018 70.4C441.518 65.3 445.118 55.4 447.518 48.5C449.918 41.6 452.918 33.2 453.818 29.9C455.018 26.6 455.918 23.3 456.218 23C456.518 22.4 456.518 21.5 456.518 21.2ZM536.22 73.1C535.32 71.3 530.22 67.7 527.22 66.5C522.12 65 519.42 65.6 518.52 69.2C516.72 76.4 515.52 79.7 512.52 84.2C511.32 86.3 510.12 89.3 509.52 90.8C508.62 92.3 507.12 95 506.22 97.1C505.02 98.9 501.12 106.1 497.52 113.3C489.12 129.8 484.92 137.6 483.42 140C482.52 141.2 481.32 143.3 480.42 144.8C475.62 154.7 461.22 175.1 452.82 184.4C450.42 187.1 450.42 187.1 450.42 185.6C450.42 183.5 451.92 172.7 452.22 172.1C452.52 171.8 453.12 169.4 453.72 167C454.02 164.6 455.22 161 455.52 159.2C456.12 157.4 457.32 152.9 458.22 149.3C460.02 141.5 463.32 128.6 463.62 128C463.92 128 464.82 124.4 466.02 120.8C467.22 116.9 468.72 112.1 469.32 110.3C470.22 107 470.82 105.2 475.92 91.1C477.12 87.5 478.32 84.2 478.62 83.9C478.92 83.6 479.52 81.5 480.12 79.7C481.62 74.9 481.32 73.4 477.42 70.1C474.12 67.1 467.52 64.1 464.52 64.1C462.42 64.1 459.72 65.9 459.72 67.4C459.72 67.7 458.82 69.5 457.92 71.6C457.02 73.7 454.92 78.2 453.72 81.5C452.22 84.8 451.02 87.8 450.72 88.4C450.42 88.7 449.52 92 448.32 95.6C447.12 98.9 445.92 102.2 445.62 102.8C445.32 103.4 444.42 106.7 443.22 110C442.32 113.6 441.12 116.9 440.82 117.5C439.62 119.6 436.32 132.2 432.72 146.9C431.22 153.2 430.92 170 431.82 177.5C433.32 187.4 436.32 192.8 442.32 196.1C445.02 197.6 446.52 197.9 449.22 198.2C452.22 198.5 453.12 198.2 455.22 197C460.02 194.9 463.32 191.9 465.72 188.6C466.32 187.4 468.42 184.4 470.52 181.7C474.72 176.6 478.92 170.3 482.82 164.3C484.32 162.2 486.72 158.3 488.22 155.9C489.72 153.5 491.82 150.5 492.42 149C493.02 147.8 493.92 146.6 493.92 146.6C494.22 146.6 494.52 146 494.52 145.7C494.52 145.1 494.82 144.8 495.12 144.8C496.02 144.8 496.02 145.1 495.42 146C495.12 146.3 494.22 149.6 493.02 153.2C492.12 156.8 490.92 160.1 490.62 160.4C490.62 161 489.42 164.3 488.22 167.9C484.92 178.1 481.92 187.1 481.02 188.3C480.72 188.6 479.52 191 478.62 193.4C477.72 195.8 476.52 197.9 476.22 198.8C475.92 199.1 475.62 200 475.62 200.3C475.62 200.9 474.72 202.1 474.12 203.3C472.92 204.5 472.32 205.7 472.32 206C472.32 206.6 467.52 214.1 463.62 219.2C453.42 233 448.32 238.4 443.22 241.1C441.72 242 441.72 242 441.12 240.8C439.62 238.7 431.22 236 428.52 236.9C427.02 237.5 427.02 237.8 427.02 240.2C427.02 241.7 427.62 243.5 428.22 244.7C430.02 248.6 435.42 252.2 441.72 253.4C443.52 254 445.32 254.3 445.62 254.6C446.82 255.5 453.42 254.9 457.62 253.7C462.12 252.5 468.42 250.1 471.72 248C472.92 247.1 475.02 245.9 475.62 245.6C480.12 242.9 485.52 236 490.02 227.9C493.92 221 493.92 221 493.92 220.4C493.92 220.1 494.82 217.7 496.32 214.7C497.52 212 499.62 207.5 500.82 204.8C502.02 201.8 503.22 199.1 503.22 198.5C503.52 198.2 504.72 195.2 505.62 192.2C506.82 189.2 508.02 185.9 508.32 185C508.92 183.5 512.52 172.4 517.62 157.1C518.82 154.1 520.02 149.3 520.92 146.6C521.82 143.9 522.42 140.9 522.72 140.6C523.02 140 523.32 138.5 523.62 137C525.12 130.4 526.02 126.2 526.32 125.9C526.62 125.6 527.22 122.6 528.12 119.3C528.42 116 529.32 112.1 529.92 110.9C530.22 109.4 531.12 105.8 531.72 102.5C532.32 99.2 532.92 96.2 533.22 95.6C533.82 94.7 536.52 81.2 536.52 77.3C536.82 75.5 536.52 73.7 536.22 73.1Z" fill="#FF4201"/>
</svg>
